<?xml version="1.0"?>
<svg xmlns="http://www.w3.org/2000/svg" xmlns:xlink="http://www.w3.org/1999/xlink" viewBox="0 0 512 512" width="512" height="512"><linearGradient id="a" gradientUnits="userSpaceOnUse" x1="256" x2="256" y1="15.879" y2="486.936"><stop offset="0" stop-color="#00efd1"/><stop offset="1" stop-color="#00acea"/></linearGradient><linearGradient id="b" x1="256" x2="256" xlink:href="#a" y1="15.879" y2="486.936"/><path d="m256 28.263a227.85 227.85 0 0 0 -161.114 388.964 227.85 227.85 0 1 0 322.228-322.227 226.354 226.354 0 0 0 -161.114-66.737zm0 435.7c-114.609 0-207.85-93.241-207.85-207.849s93.241-207.851 207.85-207.851 207.85 93.237 207.85 207.85-93.241 207.849-207.85 207.849z" fill="url(#a)"/><path d="m316.618 179a10 10 0 0 0 -10-10h-101.236a10 10 0 0 0 0 20h28.984a33.824 33.824 0 0 1 31.9 23h-60.884a10 10 0 0 0 0 20h60.888a34.869 34.869 0 0 1 -8.27 13.922 33.485 33.485 0 0 1 -23.634 10.078h-28.984a9.649 9.649 0 0 0 -6.869 16.771l72.407 68.364a10.029 10.029 0 0 0 14.137-.46 9.617 9.617 0 0 0 -.4-13.815l-54.139-50.86h3.848a53.346 53.346 0 0 0 37.775-15.937 51.913 51.913 0 0 0 14.71-28.063h19.767a10 10 0 0 0 0-20h-19.779a47.226 47.226 0 0 0 -10.855-23h30.634a10 10 0 0 0 10-10z" fill="url(#b)"/><path d="m256 81.7c-96.174 0-174.417 78.243-174.417 174.417s78.243 174.413 174.417 174.413 174.417-78.243 174.417-174.417-78.243-174.413-174.417-174.413zm0 328.834c-85.146 0-154.417-69.272-154.417-154.417s69.271-154.417 154.417-154.417 154.417 69.271 154.417 154.417-69.271 154.413-154.417 154.413z" fill="url(#a)"/></svg>
